<?xml version="1.0" standalone="no"?>
<!DOCTYPE svg PUBLIC "-//W3C//DTD SVG 20010904//EN"
 "http://www.w3.org/TR/2001/REC-SVG-20010904/DTD/svg10.dtd">
<svg version="1.0" xmlns="http://www.w3.org/2000/svg"
 width="22.000000pt" height="22.000000pt" viewBox="0 0 22.000000 22.000000"
 preserveAspectRatio="xMidYMid meet">

<g transform="translate(0.000000,22.000000) scale(0.100000,-0.100000)"
fill="#000000" stroke="none">
<path d="M30 210 c0 -14 43 -23 88 -18 44 4 59 -7 65 -48 3 -22 4 -19 6 13 1
33 -3 45 -18 53 -25 13 -141 13 -141 0z"/>
<path d="M32 133 c-1 -38 -7 -63 -15 -66 -7 -3 -5 -6 6 -6 22 -1 23 -41 0 -41
-37 0 -3 -11 45 -14 38 -3 52 0 52 9 0 8 3 20 6 29 4 10 1 16 -10 16 -8 0 -20
10 -27 22 -10 19 -12 19 -21 5 -17 -32 -27 -17 -31 46 l-3 62 -2 -62z m77 -90
c10 -7 -30 -32 -43 -27 -19 7 -21 25 -4 42 9 9 15 9 27 0 9 -7 18 -13 20 -15z"/>
<path d="M77 173 c31 -4 32 -5 18 -27 -13 -20 -13 -25 1 -42 15 -18 15 -18 5
3 -9 18 -6 25 20 47 l31 26 -54 -2 c-35 -1 -42 -3 -21 -5z"/>
<path d="M135 151 c3 -5 -2 -17 -11 -25 -8 -9 -11 -16 -5 -16 5 0 15 8 20 18
10 16 10 16 11 -2 0 -10 -8 -25 -17 -33 -16 -13 -16 -13 4 -4 30 15 37 -16 10
-46 -22 -24 -19 -27 35 -36 33 -5 41 11 20 36 -9 10 -17 28 -17 40 0 12 -6 21
-12 20 -8 -2 -13 7 -13 21 0 13 -7 27 -16 30 -8 3 -13 2 -9 -3z m42 -73 c-3
-8 -6 -5 -6 6 -1 11 2 17 5 13 3 -3 4 -12 1 -19z m16 -45 c3 -5 -5 -8 -18 -8
-13 0 -21 3 -18 8 6 9 30 9 36 0z"/>
</g>
</svg>
