<?xml version="1.0" standalone="no"?>
<!DOCTYPE svg PUBLIC "-//W3C//DTD SVG 20010904//EN"
 "http://www.w3.org/TR/2001/REC-SVG-20010904/DTD/svg10.dtd">
<svg version="1.0" xmlns="http://www.w3.org/2000/svg"
 width="22.000000pt" height="22.000000pt" viewBox="0 0 22.000000 22.000000"
 preserveAspectRatio="xMidYMid meet">

<g transform="translate(0.000000,22.000000) scale(0.100000,-0.100000)"
fill="#000000" stroke="none">
<path d="M0 139 c0 -43 2 -49 21 -49 19 0 20 -2 8 -17 -13 -17 -12 -17 4 -4
16 13 19 13 17 0 -5 -31 0 -42 13 -31 6 6 17 11 22 12 17 3 19 10 3 10 -9 0
-21 7 -28 15 -11 13 -8 15 20 15 28 0 31 2 20 15 -11 13 -10 14 4 9 9 -3 16
-2 16 4 0 5 -7 12 -15 16 -8 3 -15 12 -15 21 0 8 -5 15 -10 15 -7 0 -7 -6 -2
-17 11 -20 0 -63 -11 -46 -4 6 -4 19 -1 30 7 17 6 17 -12 -1 -14 -13 -15 -20
-6 -23 20 -8 4 -22 -18 -16 -16 4 -20 14 -20 44 0 32 3 39 20 39 14 0 18 -5
13 -17 -6 -17 -5 -17 14 0 20 18 49 15 56 -6 2 -7 3 -4 2 6 -3 14 5 17 45 17
42 0 49 -3 53 -22 4 -20 4 -19 6 5 l1 27 -110 -1 -110 -1 0 -49z"/>
<path d="M130 166 c0 -9 40 -13 46 -5 3 5 -6 9 -20 9 -14 0 -26 -2 -26 -4z"/>
<path d="M130 140 c0 -5 7 -10 15 -10 8 0 15 5 15 10 0 6 -7 10 -15 10 -8 0
-15 -4 -15 -10z"/>
<path d="M186 135 c-3 -8 -1 -15 4 -15 6 0 10 7 10 15 0 8 -2 15 -4 15 -2 0
-6 -7 -10 -15z"/>
<path d="M210 116 c0 -10 -13 -16 -37 -19 l-38 -4 43 -1 c36 -2 42 1 42 18 0
11 -2 20 -5 20 -3 0 -5 -6 -5 -14z"/>
<path d="M125 50 c3 -5 8 -10 11 -10 2 0 4 5 4 10 0 6 -5 10 -11 10 -5 0 -7
-4 -4 -10z"/>
<path d="M165 50 c4 -6 11 -8 16 -5 14 9 11 15 -7 15 -8 0 -12 -5 -9 -10z"/>
</g>
</svg>
