<?xml version="1.0" standalone="no"?>
<!DOCTYPE svg PUBLIC "-//W3C//DTD SVG 20010904//EN"
 "http://www.w3.org/TR/2001/REC-SVG-20010904/DTD/svg10.dtd">
<svg version="1.0" xmlns="http://www.w3.org/2000/svg"
 width="25.000000pt" height="25.000000pt" viewBox="0 0 25.000000 25.000000"
 preserveAspectRatio="xMidYMid meet">

<g transform="translate(0.000000,25.000000) scale(0.100000,-0.100000)"
fill="#000000" stroke="none">
<path d="M200 235 c-9 -11 -35 -15 -107 -15 l-94 0 3 -77 3 -78 52 -3 c42 -2
58 -9 82 -33 36 -35 54 -36 86 -4 28 27 31 51 10 79 -20 26 -19 75 1 98 14 14
14 20 4 33 -16 19 -24 19 -40 0z m40 -15 c0 -5 -5 -12 -11 -16 -14 -8 -33 11
-25 25 7 11 36 4 36 -9z m-50 -19 c0 -16 -20 -24 -33 -13 -13 11 -57 -17 -57
-36 0 -6 -5 -12 -11 -14 -9 -3 -9 -12 -1 -33 9 -26 11 -27 11 -8 1 15 6 21 15
17 8 -3 12 -13 9 -25 -5 -17 -13 -20 -57 -17 -48 3 -69 22 -26 24 11 1 17 -3
14 -7 -3 -5 -1 -9 5 -9 5 0 13 5 16 10 7 11 -42 33 -56 25 -4 -3 -7 16 -5 42
2 26 4 48 5 48 1 0 39 1 86 3 50 2 85 -1 85 -7z m20 -41 c0 -26 -4 -30 -27
-32 -16 -1 -37 -2 -48 -3 -34 -3 -38 6 -14 31 18 19 25 21 37 12 11 -10 16 -9
23 5 15 26 29 20 29 -13z m-34 -49 c-4 -5 0 -12 6 -15 7 -3 4 -4 -7 -3 -12 1
-19 -3 -17 -11 1 -8 -2 -11 -9 -6 -9 5 -10 2 -6 -9 3 -10 2 -17 -3 -17 -16 0
-12 32 7 52 16 18 39 25 29 9z m50 -16 c14 -22 15 -30 4 -50 -16 -30 -43 -40
-70 -25 -19 10 -19 12 -5 27 9 8 14 21 12 27 -3 6 6 12 19 12 13 1 24 -2 24
-8 0 -5 -5 -6 -10 -3 -6 4 -9 1 -8 -7 2 -7 -3 -12 -10 -10 -8 1 -11 -2 -8 -7
4 -5 0 -12 -6 -15 -7 -3 0 -4 17 -3 25 2 30 7 32 30 1 17 -4 30 -13 34 -16 6
-19 23 -4 23 5 0 17 -11 26 -25z m-16 -45 c0 -5 -5 -10 -11 -10 -5 0 -7 5 -4
10 3 6 8 10 11 10 2 0 4 -4 4 -10z"/>
<path d="M53 173 c9 -2 23 -2 30 0 6 3 -1 5 -18 5 -16 0 -22 -2 -12 -5z"/>
<path d="M48 153 c6 -2 18 -2 25 0 6 3 1 5 -13 5 -14 0 -19 -2 -12 -5z"/>
</g>
</svg>
