<?xml version="1.0" standalone="no"?>
<!DOCTYPE svg PUBLIC "-//W3C//DTD SVG 20010904//EN"
 "http://www.w3.org/TR/2001/REC-SVG-20010904/DTD/svg10.dtd">
<svg version="1.0" xmlns="http://www.w3.org/2000/svg"
 width="24.000000pt" height="24.000000pt" viewBox="0 0 24.000000 24.000000"
 preserveAspectRatio="xMidYMid meet">

<g transform="translate(0.000000,24.000000) scale(0.100000,-0.100000)"
fill="#000000" stroke="none">
<path d="M3 224 c-8 -22 10 -49 33 -50 33 -2 35 -4 25 -21 -5 -10 -18 -18 -28
-18 -10 0 -18 -7 -18 -15 0 -8 9 -15 20 -15 11 0 21 -8 23 -17 2 -12 -5 -17
-25 -20 -22 -2 -28 -8 -28 -28 0 -34 50 -42 60 -11 3 12 3 25 0 31 -8 13 -2
13 29 -1 13 -6 27 -20 29 -31 3 -11 10 -17 17 -13 6 4 8 15 5 26 -10 29 15 23
52 -13 43 -41 56 -28 15 15 -34 35 -47 72 -17 47 12 -10 19 -10 27 -2 8 8 4
14 -16 22 -15 5 -24 14 -21 20 3 5 1 10 -6 10 -22 0 4 18 31 22 19 2 25 9 25
28 0 21 -5 25 -30 25 -25 0 -30 -4 -29 -22 0 -13 -2 -23 -5 -23 -16 1 -36 21
-36 37 0 10 -7 18 -15 18 -8 0 -15 -8 -15 -18 0 -22 -31 -42 -40 -27 -3 5 -3
15 0 20 9 15 -14 40 -37 40 -10 0 -21 -7 -25 -16z m20 -9 c-3 -9 -8 -14 -10
-11 -3 3 -2 9 2 15 9 16 15 13 8 -4z m37 -6 c0 -6 -4 -7 -10 -4 -5 3 -10 1
-10 -6 0 -7 -2 -10 -5 -7 -9 8 6 38 16 32 5 -3 9 -10 9 -15z m170 -9 c0 -5 -2
-10 -4 -10 -3 0 -8 5 -11 10 -3 6 -1 10 4 10 6 0 11 -4 11 -10z m-68 -54 c-2
-9 2 -24 9 -32 9 -11 8 -14 -5 -14 -8 0 -18 11 -22 25 -3 14 -11 22 -17 18 -6
-3 -7 -1 -3 5 4 7 2 12 -3 12 -8 0 -41 -60 -41 -76 0 -1 12 -5 28 -7 25 -4 25
-4 -3 -3 -38 1 -45 31 -15 68 25 32 77 35 72 4z m-24 -39 c2 -12 -3 -17 -17
-17 -12 0 -21 6 -21 13 0 31 32 34 38 4z m62 -62 l35 -39 -41 34 c-22 19 -39
39 -36 43 2 5 5 7 6 5 0 -2 17 -21 36 -43z m-170 11 c0 -3 -4 -8 -10 -11 -5
-3 -10 -1 -10 4 0 6 5 11 10 11 6 0 10 -2 10 -4z m30 -6 c0 -5 -2 -10 -4 -10
-3 0 -8 5 -11 10 -3 6 -1 10 4 10 6 0 11 -4 11 -10z"/>
</g>
</svg>
