<?xml version="1.0" standalone="no"?>
<!DOCTYPE svg PUBLIC "-//W3C//DTD SVG 20010904//EN"
 "http://www.w3.org/TR/2001/REC-SVG-20010904/DTD/svg10.dtd">
<svg version="1.0" xmlns="http://www.w3.org/2000/svg"
 width="22.000000pt" height="22.000000pt" viewBox="0 0 22.000000 22.000000"
 preserveAspectRatio="xMidYMid meet">

<g transform="translate(0.000000,22.000000) scale(0.100000,-0.100000)"
fill="#000000" stroke="none">
<path d="M11 173 c2 -25 12 -47 29 -63 24 -23 24 -25 5 -28 -34 -7 -38 -19 -5
-17 23 1 30 -2 30 -17 0 -13 -8 -18 -30 -18 -17 0 -30 -3 -30 -8 0 -4 21 -5
48 -3 26 2 41 6 35 8 -7 3 -13 13 -13 24 0 11 -7 31 -16 44 -11 17 -12 25 -5
25 7 0 10 4 6 10 -3 5 -13 7 -23 4 -9 -3 -6 2 8 10 l25 15 -27 1 c-21 0 -28 5
-28 20 0 35 33 23 57 -20 16 -31 18 -40 7 -40 -19 0 -18 -19 2 -27 9 -3 14
-13 11 -24 -3 -10 1 -23 9 -30 19 -16 31 17 16 42 -10 15 -9 17 4 12 8 -3 21
3 29 13 16 22 20 12 5 -16 -7 -13 -6 -19 6 -24 9 -3 20 -4 25 0 5 3 9 -4 9
-15 0 -27 -40 -30 -41 -3 0 13 -2 14 -6 2 -3 -8 -11 -18 -17 -22 -6 -4 8 -8
32 -8 40 0 42 1 42 30 0 23 -4 30 -20 30 -25 0 -26 15 -2 32 10 7 18 23 18 35
0 14 -4 19 -10 13 -5 -5 -21 1 -41 16 -35 27 -55 30 -73 12 -9 -9 -12 -8 -12
5 0 12 -8 17 -31 17 -29 0 -30 -2 -28 -37z m154 -15 c22 -17 32 -28 23 -25 -9
3 -22 -1 -29 -9 -8 -10 -15 -12 -22 -5 -7 7 -6 15 2 25 7 8 8 17 3 20 -6 3
-12 -4 -16 -16 -6 -25 -20 -17 -31 20 -10 33 21 28 70 -10z m-45 -98 c0 -5 -5
-10 -11 -10 -5 0 -7 5 -4 10 3 6 8 10 11 10 2 0 4 -4 4 -10z"/>
<path d="M166 201 c-4 -5 4 -7 16 -3 21 5 22 4 8 -14 -14 -18 -14 -18 2 -5 10
7 15 17 12 22 -7 12 -31 12 -38 0z"/>
<path d="M30 180 c0 -5 5 -10 10 -10 6 0 10 5 10 10 0 6 -4 10 -10 10 -5 0
-10 -4 -10 -10z"/>
</g>
</svg>
