<?xml version="1.0" standalone="no"?>
<!DOCTYPE svg PUBLIC "-//W3C//DTD SVG 20010904//EN"
 "http://www.w3.org/TR/2001/REC-SVG-20010904/DTD/svg10.dtd">
<svg version="1.0" xmlns="http://www.w3.org/2000/svg"
 width="48.000000pt" height="48.000000pt" viewBox="0 0 48.000000 48.000000"
 preserveAspectRatio="xMidYMid meet">

<g transform="translate(0.000000,48.000000) scale(0.100000,-0.100000)"
fill="#000000" stroke="none">
<path d="M87 335 c-49 -46 -87 -90 -85 -97 2 -7 42 -51 90 -96 101 -98 121
-102 126 -29 3 42 6 47 27 47 80 0 204 -47 212 -81 10 -38 26 -20 19 22 -10
60 -39 112 -88 153 -37 32 -117 66 -154 66 -8 0 -14 17 -16 48 -5 73 -27 67
-131 -33z"/>
</g>
</svg>
