<?xml version="1.0" standalone="no"?>
<!DOCTYPE svg PUBLIC "-//W3C//DTD SVG 20010904//EN"
 "http://www.w3.org/TR/2001/REC-SVG-20010904/DTD/svg10.dtd">
<svg version="1.0" xmlns="http://www.w3.org/2000/svg"
 width="22.000000pt" height="22.000000pt" viewBox="0 0 22.000000 22.000000"
 preserveAspectRatio="xMidYMid meet">

<g transform="translate(0.000000,22.000000) scale(0.100000,-0.100000)"
fill="#000000" stroke="none">
<path d="M52 168 l3 -53 55 0 55 0 3 38 c3 33 1 37 -21 37 -14 0 -30 7 -37 15
-7 8 -23 15 -37 15 -23 0 -24 -3 -21 -52z m48 32 c0 -5 -9 -10 -20 -10 -11 0
-20 5 -20 10 0 6 9 10 20 10 11 0 20 -4 20 -10z m60 -50 c0 -29 -1 -30 -50
-30 -49 0 -50 1 -50 30 0 29 1 30 50 30 49 0 50 -1 50 -30z"/>
<path d="M75 92 c-76 -6 -54 -17 35 -17 48 0 86 3 84 6 -5 9 -70 15 -119 11z"/>
<path d="M0 25 c0 -21 5 -25 30 -25 23 0 30 5 30 19 0 19 -18 31 -46 31 -8 0
-14 -10 -14 -25z m34 9 c23 -9 20 -24 -4 -24 -11 0 -20 7 -20 15 0 17 2 18 24
9z"/>
<path d="M80 25 c0 -21 5 -25 30 -25 23 0 30 5 30 19 0 19 -18 31 -46 31 -8 0
-14 -10 -14 -25z m50 -6 c0 -5 -9 -9 -20 -9 -11 0 -20 6 -20 14 0 9 7 12 20 9
11 -3 20 -9 20 -14z"/>
<path d="M160 40 c0 -5 3 -9 8 -9 21 4 42 -2 42 -12 0 -7 -10 -9 -25 -7 -14 3
-25 1 -25 -3 0 -5 14 -9 30 -9 23 0 30 5 30 19 0 19 -18 31 -46 31 -8 0 -14
-4 -14 -10z"/>
</g>
</svg>
