<?xml version="1.0" standalone="no"?>
<!DOCTYPE svg PUBLIC "-//W3C//DTD SVG 20010904//EN"
 "http://www.w3.org/TR/2001/REC-SVG-20010904/DTD/svg10.dtd">
<svg version="1.0" xmlns="http://www.w3.org/2000/svg"
 width="22.000000pt" height="22.000000pt" viewBox="0 0 22.000000 22.000000"
 preserveAspectRatio="xMidYMid meet">

<g transform="translate(0.000000,22.000000) scale(0.100000,-0.100000)"
fill="#000000" stroke="none">
<path d="M150 195 c0 -23 -2 -24 -20 -15 -43 23 -85 -33 -60 -80 10 -18 9 -24
-1 -31 -20 -13 -29 -11 -23 5 6 14 -22 30 -37 20 -17 -10 -9 -30 24 -62 37
-36 49 -39 67 -17 7 8 27 15 44 15 24 0 36 7 49 29 18 31 23 91 7 91 -5 0 -7
-13 -4 -29 7 -36 -13 -78 -29 -62 -6 6 -15 11 -21 11 -5 0 -1 -7 10 -15 17
-14 14 -15 -38 -13 -56 1 -74 10 -44 21 7 3 18 1 25 -6 7 -7 18 -3 37 18 21
23 25 35 21 62 -3 18 -2 33 4 33 5 0 9 -4 9 -9 0 -5 11 -4 25 2 16 8 25 20 25
35 0 19 -5 22 -35 22 -31 0 -35 -3 -35 -25z m60 1 c0 -16 -27 -29 -41 -20 -19
11 -9 34 16 34 15 0 25 -6 25 -14z m-78 -33 c26 -24 23 -28 -22 -28 -45 0 -47
1 -23 27 20 22 22 22 45 1z m4 -45 c4 -6 0 -16 -9 -23 -9 -7 -14 -15 -10 -19
4 -4 0 -4 -9 -1 -19 7 -31 32 -22 46 8 13 41 11 50 -3z m-101 -60 c6 -12 21
-25 35 -28 18 -4 21 -8 12 -14 -13 -8 -72 38 -72 56 0 16 15 7 25 -14z"/>
<path d="M178 193 c7 -3 16 -2 19 1 4 3 -2 6 -13 5 -11 0 -14 -3 -6 -6z"/>
<path d="M59 195 c-15 -8 -30 -22 -33 -32 -6 -13 -1 -12 18 6 13 13 40 27 58
31 27 7 29 8 8 9 -14 0 -37 -6 -51 -14z"/>
<path d="M5 130 c4 -6 11 -8 16 -5 14 9 11 15 -7 15 -8 0 -12 -5 -9 -10z"/>
</g>
</svg>
